<svg width="29" height="29" viewBox="0 0 29 29" fill="none" xmlns="http://www.w3.org/2000/svg">
<g clip-path="url(#clip0_222_210)">
<path d="M14.5 28.5C22.232 28.5 28.5 22.232 28.5 14.5C28.5 6.76801 22.232 0.5 14.5 0.5C6.76801 0.5 0.5 6.76801 0.5 14.5C0.5 22.232 6.76801 28.5 14.5 28.5Z" fill="white"/>
<path d="M14.5001 26.9703C21.3873 26.9703 26.9704 21.3871 26.9704 14.5C26.9704 7.61281 21.3873 2.02966 14.5001 2.02966C7.61293 2.02966 2.02979 7.61281 2.02979 14.5C2.02979 21.3871 7.61293 26.9703 14.5001 26.9703Z" fill="black"/>
<path d="M3.42637 13.8682H0.5V16.6615H3.42637V13.8682Z" fill="black"/>
<path d="M28.5001 13.0701H25.5737V15.8634H28.5001V13.0701Z" fill="black"/>
<path d="M15.9964 0.5H13.0701V3.29335H15.9964V0.5Z" fill="black"/>
<path d="M15.9964 25.7067H13.0701V28.5H15.9964V25.7067Z" fill="black"/>
<path d="M12.9737 17.6591L11.2326 12.0073L11.0184 11.3182H11.9309L13.7093 17.1936L13.2996 17.1005L14.8453 11.3182H15.7857L14.0631 17.6591H12.9737ZM8.88614 17.6591L7.16357 11.3182H8.104L9.64965 17.1005L9.23996 17.1936L11.0184 11.3182H11.9309L11.7167 12.0073L9.97555 17.6591H8.88614Z" fill="white"/>
<path d="M16.0261 11.2744L17.7673 16.9262L17.9814 17.6153H17.0689L15.2905 11.7399L15.7002 11.833L14.1545 17.6153H13.2141L14.9367 11.2744H16.0261ZM20.1137 11.2744L21.8362 17.6153H20.8958L19.3502 11.833L19.7599 11.7399L17.9814 17.6153H17.0689L17.2831 16.9262L19.0243 11.2744H20.1137Z" fill="white"/>
</g>
<defs>
<clipPath id="clip0_222_210">
<rect width="28" height="28" fill="white" transform="translate(0.5 0.5)"/>
</clipPath>
</defs>
</svg>
