<svg width="847" height="162" viewBox="0 0 847 162" fill="none" xmlns="http://www.w3.org/2000/svg">
<path d="M6.16 59V20.04H12.48V59H6.16ZM5.44 10.76V2.92H13.44V10.76H5.44ZM56.7481 59H50.3481V36.52C50.3481 29.48 48.0281 25 40.8281 25C34.6681 25 30.5881 31.48 30.5881 37.08V59H24.2681V20.04H30.5881V27.56C32.5881 23.72 36.9881 19.32 43.2281 19.32C52.8281 19.32 56.7481 25.88 56.7481 35.4V59ZM86.5875 53.56L86.7475 59.08C84.9075 59.4 82.5875 59.48 80.3475 59.48C72.2675 59.48 71.3075 54.44 71.3075 46.92V25.48H63.3875V20.04H71.3075V10.52H77.6275V20.04H87.3875V25.48H77.6275V46.36C77.6275 51.96 78.5875 53.72 83.0675 53.72C84.0275 53.72 85.2275 53.64 86.5875 53.56ZM95.2075 20.04H101.528V29.24C102.648 25.16 107.848 19.72 114.328 19.72C115.048 19.72 115.768 19.72 116.408 19.8V25.48H113.608C106.728 25.48 101.528 31.88 101.528 37V59H95.2075V20.04ZM120.948 39.48C120.948 27.96 129.588 19.32 141.828 19.32C153.908 19.32 162.708 27.96 162.708 39.48C162.708 51.16 154.068 59.8 141.828 59.8C129.508 59.8 120.948 51.32 120.948 39.48ZM141.828 54.04C150.068 54.04 156.228 47.8 156.228 39.48C156.228 31.16 150.068 25 141.828 25C133.748 25 127.428 31.4 127.428 39.48C127.428 47.64 133.748 54.04 141.828 54.04ZM204.646 59L204.566 51.24C202.246 56.12 195.766 59.8 190.086 59.8C178.486 59.8 170.166 51.24 170.166 39.32C170.166 27.56 178.726 19.32 190.086 19.32C196.246 19.32 202.166 23.08 204.566 28.12V0.279998H210.886V59H204.646ZM176.646 39.4C176.646 47.72 182.726 54.04 191.046 54.04C199.126 54.04 204.886 47.24 204.886 39.4C204.886 31.48 199.046 25 191.046 25C182.806 25 176.646 31.08 176.646 39.4ZM221.69 20.04H228.01V42.6C228.01 49.56 230.17 54.04 237.37 54.04C243.77 54.04 247.85 47.88 247.85 42.12V20.04H254.17V59H247.85V51.56C245.85 54.92 241.85 59.8 235.13 59.8C225.45 59.8 221.69 53.16 221.69 43.72V20.04ZM284.171 59.8C271.691 59.8 263.291 51.08 263.291 39.32C263.291 27.72 272.091 19.32 284.171 19.32C292.811 19.32 299.211 23.56 302.731 29.96L296.571 31.88C294.091 27.72 289.851 25 284.171 25C276.171 25 269.771 31.08 269.771 39.32C269.771 47.56 276.251 54.04 284.171 54.04C289.771 54.04 293.931 51.4 296.411 47.24L302.651 49.32C298.891 55.8 292.971 59.8 284.171 59.8ZM311.941 59V20.04H318.261V59H311.941ZM311.221 10.76V2.92H319.221V10.76H311.221ZM362.529 59H356.129V36.52C356.129 29.48 353.809 25 346.609 25C340.449 25 336.369 31.48 336.369 37.08V59H330.049V20.04H336.369V27.56C338.369 23.72 342.769 19.32 349.009 19.32C358.609 19.32 362.529 25.88 362.529 35.4V59ZM406.129 20.04H412.449V58.28C412.449 70.52 404.689 77.88 392.209 77.88C383.169 77.88 373.329 73.32 373.009 63.8L379.409 63C379.649 69.48 386.609 72.28 392.369 72.28C401.329 72.28 406.129 67.48 406.129 59.08V51.32C403.489 56.28 397.329 59.8 391.649 59.8C380.129 59.8 371.729 51 371.729 39.32C371.729 27.4 380.369 19.32 391.649 19.32C397.889 19.32 403.809 23.16 406.129 28.2V20.04ZM378.209 39.4C378.209 47.72 384.289 54.04 392.609 54.04C400.689 54.04 406.449 47.24 406.449 39.4C406.449 31.48 400.609 25 392.609 25C384.369 25 378.209 31.08 378.209 39.4ZM358.072 155.56L358.232 161.08C356.392 161.4 354.072 161.48 351.832 161.48C343.752 161.48 342.792 156.44 342.792 148.92V127.48H334.872V122.04H342.792V112.52H349.112V122.04H358.872V127.48H349.112V148.36C349.112 153.96 350.072 155.72 354.552 155.72C355.512 155.72 356.712 155.64 358.072 155.56ZM399.092 161H392.692V138.52C392.692 131.56 390.452 127 383.092 127C376.932 127 372.932 133.48 372.932 139.08V161H366.612V102.28H372.932V129.56C374.772 125.64 379.492 121.32 385.572 121.32C395.092 121.32 399.092 127.96 399.092 137.4V161ZM428.211 161.8C415.731 161.8 408.291 152.36 408.291 141.32C408.291 130.92 415.971 121.32 428.211 121.32C441.011 121.32 446.611 130.92 446.611 140.04V142.92H414.851C414.851 149.88 420.531 156.28 428.211 156.28C433.731 156.28 437.891 154.04 440.051 150.44L445.971 152.76C442.451 158.28 436.371 161.8 428.211 161.8ZM428.211 126.6C420.291 126.6 415.011 132.6 415.011 138.28H440.451C440.451 132.44 435.651 126.6 428.211 126.6ZM500.838 137.8H505.478C505.478 130.76 503.158 126.6 495.398 126.6C490.998 126.6 485.878 128.92 485.558 133.32L479.398 132.44C479.558 127 486.598 121.32 495.478 121.32C506.198 121.32 511.958 127 511.958 137V161H505.558V152.12C504.038 157.24 498.198 161.72 491.558 161.72C485.318 161.72 478.838 158.76 478.838 150.92C478.838 140.68 490.918 137.8 500.838 137.8ZM492.918 156.68C501.958 156.68 505.558 149.32 505.558 142.36H500.278C493.638 142.36 485.158 143.56 485.158 150.6C485.158 155.08 488.918 156.68 492.918 156.68ZM523.504 161V122.04H529.824V161H523.504ZM522.784 112.76V104.92H530.784V112.76H522.784ZM585.499 161.8C573.019 161.8 564.619 153.08 564.619 141.32C564.619 129.72 573.419 121.32 585.499 121.32C594.139 121.32 600.539 125.56 604.059 131.96L597.899 133.88C595.419 129.72 591.179 127 585.499 127C577.499 127 571.099 133.08 571.099 141.32C571.099 149.56 577.579 156.04 585.499 156.04C591.099 156.04 595.259 153.4 597.739 149.24L603.979 151.32C600.219 157.8 594.299 161.8 585.499 161.8ZM645.029 161H638.629V138.52C638.629 131.56 636.389 127 629.029 127C622.869 127 618.869 133.48 618.869 139.08V161H612.549V102.28H618.869V129.56C620.709 125.64 625.429 121.32 631.509 121.32C641.029 121.32 645.029 127.96 645.029 137.4V161ZM676.229 137.8H680.869C680.869 130.76 678.549 126.6 670.789 126.6C666.389 126.6 661.269 128.92 660.949 133.32L654.789 132.44C654.949 127 661.989 121.32 670.869 121.32C681.589 121.32 687.349 127 687.349 137V161H680.949V152.12C679.429 157.24 673.589 161.72 666.949 161.72C660.709 161.72 654.229 158.76 654.229 150.92C654.229 140.68 666.309 137.8 676.229 137.8ZM668.309 156.68C677.349 156.68 680.949 149.32 680.949 142.36H675.669C669.029 142.36 660.549 143.56 660.549 150.6C660.549 155.08 664.309 156.68 668.309 156.68ZM717.134 155.56L717.294 161.08C715.454 161.4 713.134 161.48 710.894 161.48C702.814 161.48 701.854 156.44 701.854 148.92V127.48H693.934V122.04H701.854V112.52H708.174V122.04H717.934V127.48H708.174V148.36C708.174 153.96 709.134 155.72 713.614 155.72C714.574 155.72 715.774 155.64 717.134 155.56ZM731.914 153.24C731.914 155.8 731.994 158.44 731.994 161H725.674V102.28H731.994V130.12C734.234 125.08 740.314 121.32 746.474 121.32C757.754 121.32 766.314 129.56 766.314 141.32C766.314 153.16 757.914 161.8 746.474 161.8C740.794 161.8 734.154 158.12 731.914 153.24ZM745.514 156.04C753.754 156.04 759.834 149.64 759.834 141.4C759.834 133.16 753.674 127 745.514 127C737.514 127 731.594 133.48 731.594 141.4C731.594 149.24 737.434 156.04 745.514 156.04ZM773.76 141.48C773.76 129.96 782.4 121.32 794.64 121.32C806.72 121.32 815.52 129.96 815.52 141.48C815.52 153.16 806.88 161.8 794.64 161.8C782.32 161.8 773.76 153.32 773.76 141.48ZM794.64 156.04C802.88 156.04 809.04 149.8 809.04 141.48C809.04 133.16 802.88 127 794.64 127C786.56 127 780.24 133.4 780.24 141.48C780.24 149.64 786.56 156.04 794.64 156.04ZM843.619 155.56L843.779 161.08C841.939 161.4 839.619 161.48 837.379 161.48C829.299 161.48 828.339 156.44 828.339 148.92V127.48H820.419V122.04H828.339V112.52H834.659V122.04H844.419V127.48H834.659V148.36C834.659 153.96 835.619 155.72 840.099 155.72C841.059 155.72 842.259 155.64 843.619 155.56Z" fill="white"/>
<path d="M64.8 121.4L51.36 161H42.96L33.2 133L23.28 161H14.8L1.52 121.4H11.68L19.52 150.36L28.96 121.32H37.6L46.88 150.36L54.72 121.4H64.8ZM89.7031 161.88C76.1031 161.88 68.9831 152.04 68.9831 141.08C68.9831 131.08 76.2631 120.6 89.7031 120.6C104.263 120.6 108.983 131.32 108.983 139C108.983 139.96 108.983 143.16 108.903 143.64H78.7431C78.7431 148.84 83.3831 153.96 89.7031 153.96C95.2231 153.96 98.4231 151 99.7031 148.68L108.263 151.88C105.223 157.4 99.2231 161.88 89.7031 161.88ZM89.7831 128.04C82.9031 128.04 78.9031 132.92 78.9031 137.4H100.103C100.103 133.24 96.6631 128.04 89.7831 128.04ZM163.628 120.6C174.188 120.6 177.628 127.4 177.628 135.96V161H168.188V138.44C168.188 132.76 166.268 129 160.508 129C155.308 129 151.948 133.4 151.948 138.52V161H142.508V138.68C142.508 132.76 140.428 129 134.748 129C128.508 129 126.268 134.6 126.268 141.64V161H116.828V121.4H126.268V128.2C128.588 123.72 132.988 120.6 138.268 120.6C144.028 120.6 148.348 123.16 150.908 128.44C152.908 124.52 157.308 120.6 163.628 120.6ZM187.464 161V121.4H196.904V161H187.464ZM186.984 113.72V103.48H197.384V113.72H186.984ZM241.951 161H232.511V138.6C232.511 132.44 230.271 129 224.591 129C219.231 129 216.111 134.2 216.111 138.92V161H206.671V121.4H216.111V128.2C217.391 125.48 221.791 120.6 228.111 120.6C237.151 120.6 241.951 126.76 241.951 136.76V161ZM270.883 137H275.843C275.843 131.32 273.683 128.12 267.523 128.12C263.843 128.12 259.923 130.12 259.443 133.8L250.323 132.52C250.563 127.72 256.562 120.6 267.603 120.6C278.643 120.6 285.283 126.6 285.283 136.52V161H275.843V153.4C274.643 157.32 269.523 161.64 263.043 161.64C256.643 161.64 249.843 158.92 249.843 150.36C249.843 141 260.643 137 270.883 137ZM265.443 154.52C272.723 154.52 275.923 148.52 275.923 143.24H271.203C264.803 143.24 259.203 144.84 259.203 149.8C259.203 153.32 262.163 154.52 265.443 154.52ZM294.644 161V101.4H304.084V161H294.644Z" fill="url(#paint0_linear_199_809)"/>
<defs>
<linearGradient id="paint0_linear_199_809" x1="88.7255" y1="82.9999" x2="88.7255" y2="185.556" gradientUnits="userSpaceOnUse">
<stop stop-color="#F1CAF9"/>
<stop offset="1" stop-color="#613EC8"/>
</linearGradient>
</defs>
</svg>
