<svg width="61" height="60" viewBox="0 0 61 60" fill="none" xmlns="http://www.w3.org/2000/svg">
<g clip-path="url(#clip0_416_481)">
<path fill-rule="evenodd" clip-rule="evenodd" d="M30.5 60C47.0685 60 60.5 46.5685 60.5 30C60.5 13.4315 47.0685 0 30.5 0C13.9315 0 0.5 13.4315 0.5 30C0.5 46.5685 13.9315 60 30.5 60ZM30.8 52.8C43.5578 52.8 53.9 42.4578 53.9 29.7C53.9 16.9422 43.5578 6.6 30.8 6.6C18.0422 6.6 7.7 16.9422 7.7 29.7C7.7 42.4578 18.0422 52.8 30.8 52.8Z" fill="white"/>
<path d="M21.8894 11.6454C16.6082 6.43184 3.94808 25.7653 6.12499 29.5668C8.30191 33.3684 5.82584 31.0875 5.38574 29.5668C4.94565 28.0462 6.30262 24.5887 7.03609 23.0499C8.31973 19.701 11.052 12.8401 11.7121 12.1885C12.3722 11.5368 17.8552 7.3913 20.5141 5.40002H33.4419L44.9944 9.20156L54.8966 18.4338C59.8706 27.5109 54.0152 40.916 54.0152 31.1925C54.0152 26.2837 51.924 27.0512 46.0686 21.3749C38.8951 14.4207 32.095 18.7926 34.2671 31.7391C35.1706 37.1244 29.2892 42.726 25.7402 40.1568C24.0992 38.9688 24.1987 35.2464 24.4984 30.7835C24.9523 24.0258 25.8652 15.5703 21.8894 11.6454Z" fill="white"/>
</g>
<defs>
<clipPath id="clip0_416_481">
<rect width="60" height="60" fill="white" transform="translate(0.5)"/>
</clipPath>
</defs>
</svg>
