<svg width="16" height="16" viewBox="0 0 16 16" fill="none" xmlns="http://www.w3.org/2000/svg">
<g clip-path="url(#clip0_424_936)">
<path d="M10.7067 -0.495546L10.3334 0.72721C8.20168 0.0769487 5.8059 0.378935 3.8414 1.75449C0.449235 4.12972 -0.375931 8.79492 1.99593 12.1916C4.36983 15.5912 9.04996 16.419 12.445 14.0418C15.0971 12.1848 16.1792 8.92018 15.3892 5.9614C15.3681 5.8846 15.2878 5.83838 15.212 5.86092L14.1829 6.15643C14.1471 6.16676 14.1167 6.19072 14.0982 6.22317C14.0798 6.25563 14.0748 6.294 14.0843 6.33009C14.1092 6.42166 14.1312 6.51529 14.1506 6.60847C14.3175 7.3854 14.3317 8.17771 14.1931 8.96361C14.0563 9.74403 13.77 10.4907 13.3502 11.1626C12.9148 11.8577 12.3483 12.4528 11.6695 12.928C10.9894 13.4043 10.2379 13.7321 9.43581 13.9035C8.66097 14.0697 7.86116 14.0833 7.08111 13.9435C6.30035 13.807 5.55362 13.5198 4.88253 13.0981C4.18641 12.6612 3.59239 12.0962 3.11612 11.416C2.63984 10.7358 2.31205 9.98433 2.1396 9.18078C1.97272 8.40385 1.95857 7.61153 2.09714 6.82564C2.23572 6.03974 2.52001 5.30005 2.94006 4.62661C3.37547 3.93152 3.94198 3.33648 4.6207 2.86123C5.30089 2.38495 6.05235 2.05716 6.85444 1.88574C7.62929 1.71954 8.4291 1.70596 9.20914 1.84576C9.45535 1.88918 9.69894 1.94752 9.9374 2.02033L9.53821 3.32443C9.53022 3.35011 9.52965 3.37752 9.53655 3.40351C9.54345 3.4295 9.55754 3.45302 9.57721 3.47135C9.59688 3.48969 9.62133 3.5021 9.64774 3.50716C9.67415 3.51222 9.70146 3.50972 9.72651 3.49996L12.7356 2.33037C12.821 2.29672 12.8537 2.19094 12.8015 2.11634L10.9604 -0.538006C10.8913 -0.633524 10.7408 -0.60878 10.7067 -0.495546Z" fill="#613EC8"/>
</g>
<defs>
<clipPath id="clip0_424_936">
<rect width="16" height="16" fill="white" transform="matrix(0 -1 1 0 0 16)"/>
</clipPath>
</defs>
</svg>
