<svg width="111" height="20" viewBox="0 0 111 20" fill="none" xmlns="http://www.w3.org/2000/svg">
<g clip-path="url(#clip0_424_898)">
<path d="M108.758 0H2.24242C1.00397 0 0 0.994923 0 2.22222V17.7778C0 19.0051 1.00397 20 2.24242 20H108.758C109.996 20 111 19.0051 111 17.7778V2.22222C111 0.994923 109.996 0 108.758 0Z" fill="url(#paint0_linear_424_898)" fill-opacity="0.2"/>
<path d="M81.848 6.66675H14.5753C13.9561 6.66675 13.4541 7.16421 13.4541 7.77786V12.2223C13.4541 12.836 13.9561 13.3334 14.5753 13.3334H81.848C82.4673 13.3334 82.9693 12.836 82.9693 12.2223V7.77786C82.9693 7.16421 82.4673 6.66675 81.848 6.66675Z" fill="#DDDDDD" fill-opacity="0.1"/>
<path d="M93.162 12.1276L90.3142 8.09633C90.054 7.72811 90.3203 7.22217 90.7739 7.22217H96.4685C96.922 7.22217 97.1883 7.72811 96.9282 8.09633L94.0803 12.1276C93.8572 12.4435 93.3852 12.4435 93.162 12.1276Z" fill="#613EC8"/>
</g>
<defs>
<linearGradient id="paint0_linear_424_898" x1="11.2121" y1="-6.94444" x2="11.4874" y2="23.8889" gradientUnits="userSpaceOnUse">
<stop stop-color="#9E93C0"/>
<stop offset="1" stop-color="#6E697E" stop-opacity="0.23"/>
</linearGradient>
<clipPath id="clip0_424_898">
<rect width="111" height="20" fill="white"/>
</clipPath>
</defs>
</svg>
