<svg width="1191" height="132" viewBox="0 0 1191 132" fill="none" xmlns="http://www.w3.org/2000/svg">
<path d="M47.1064 14.795L37.1944 44H30.9994L23.8014 23.35L16.4854 44H10.2314L0.437406 14.795H7.93041L13.7124 36.153L20.6744 14.736H27.0464L33.8904 36.153L39.6724 14.795H47.1064ZM65.4725 44.649C55.4425 44.649 50.1915 37.392 50.1915 29.309C50.1915 21.934 55.5605 14.205 65.4725 14.205C76.2105 14.205 79.6915 22.111 79.6915 27.775C79.6915 28.483 79.6915 30.843 79.6325 31.197H57.3895C57.3895 35.032 60.8115 38.808 65.4725 38.808C69.5435 38.808 71.9035 36.625 72.8475 34.914L79.1605 37.274C76.9185 41.345 72.4935 44.649 65.4725 44.649ZM65.5315 19.692C60.4575 19.692 57.5075 23.291 57.5075 26.595H73.1425C73.1425 23.527 70.6055 19.692 65.5315 19.692ZM119.992 14.205C127.78 14.205 130.317 19.22 130.317 25.533V44H123.355V27.362C123.355 23.173 121.939 20.4 117.691 20.4C113.856 20.4 111.378 23.645 111.378 27.421V44H104.416V27.539C104.416 23.173 102.882 20.4 98.6927 20.4C94.0907 20.4 92.4387 24.53 92.4387 29.722V44H85.4767V14.795H92.4387V19.81C94.1497 16.506 97.3947 14.205 101.289 14.205C105.537 14.205 108.723 16.093 110.611 19.987C112.086 17.096 115.331 14.205 119.992 14.205ZM137.571 44V14.795H144.533V44H137.571ZM137.217 9.131V1.579H144.887V9.131H137.217ZM177.755 44H170.793V27.48C170.793 22.937 169.141 20.4 164.952 20.4C160.999 20.4 158.698 24.235 158.698 27.716V44H151.736V14.795H158.698V19.81C159.642 17.804 162.887 14.205 167.548 14.205C174.215 14.205 177.755 18.748 177.755 26.123V44ZM199.092 26.3H202.75C202.75 22.111 201.157 19.751 196.614 19.751C193.9 19.751 191.009 21.226 190.655 23.94L183.929 22.996C184.106 19.456 188.531 14.205 196.673 14.205C204.815 14.205 209.712 18.63 209.712 25.946V44H202.75V38.395C201.865 41.286 198.089 44.472 193.31 44.472C188.59 44.472 183.575 42.466 183.575 36.153C183.575 29.25 191.54 26.3 199.092 26.3ZM195.08 39.221C200.449 39.221 202.809 34.796 202.809 30.902H199.328C194.608 30.902 190.478 32.082 190.478 35.74C190.478 38.336 192.661 39.221 195.08 39.221ZM216.616 44V0.0449962H223.578V44H216.616Z" fill="url(#paint0_linear_416_293)"/>
<path d="M266.285 31.551H249.293V27.303H266.285V31.551ZM306.611 25.002L318.116 4.411H323.544L308.971 29.545V44H304.133V29.545L289.619 4.411H295.106L306.611 25.002ZM322.441 29.604C322.441 21.108 328.813 14.736 337.84 14.736C346.749 14.736 353.239 21.108 353.239 29.604C353.239 38.218 346.867 44.59 337.84 44.59C328.754 44.59 322.441 38.336 322.441 29.604ZM337.84 40.342C343.917 40.342 348.46 35.74 348.46 29.604C348.46 23.468 343.917 18.925 337.84 18.925C331.881 18.925 327.22 23.645 327.22 29.604C327.22 35.622 331.881 40.342 337.84 40.342ZM359.979 15.267H364.64V31.905C364.64 37.038 366.233 40.342 371.543 40.342C376.263 40.342 379.272 35.799 379.272 31.551V15.267H383.933V44H379.272V38.513C377.797 40.991 374.847 44.59 369.891 44.59C362.752 44.59 359.979 39.693 359.979 32.731V15.267ZM391.958 15.267H396.619V22.052C397.445 19.043 401.28 15.031 406.059 15.031C406.59 15.031 407.121 15.031 407.593 15.09V19.279H405.528C400.454 19.279 396.619 23.999 396.619 27.775V44H391.958V15.267ZM434.989 38.277V57.511H430.328V15.267H434.989V21.226C436.7 17.509 441.243 14.736 445.727 14.736C454.046 14.736 460.359 20.813 460.359 29.486C460.359 38.218 454.105 44.59 445.727 44.59C441.538 44.59 436.641 41.935 434.989 38.277ZM445.019 40.342C451.096 40.342 455.58 35.622 455.58 29.545C455.58 23.468 451.037 18.925 445.019 18.925C439.119 18.925 434.753 23.704 434.753 29.545C434.753 35.327 439.06 40.342 445.019 40.342ZM480.541 44.59C471.337 44.59 465.85 37.628 465.85 29.486C465.85 21.816 471.514 14.736 480.541 14.736C489.981 14.736 494.111 21.816 494.111 28.542V30.666H470.688C470.688 35.799 474.877 40.519 480.541 40.519C484.612 40.519 487.68 38.867 489.273 36.212L493.639 37.923C491.043 41.994 486.559 44.59 480.541 44.59ZM480.541 18.63C474.7 18.63 470.806 23.055 470.806 27.244H489.568C489.568 22.937 486.028 18.63 480.541 18.63ZM500.969 15.267H505.63V22.052C506.456 19.043 510.291 15.031 515.07 15.031C515.601 15.031 516.132 15.031 516.604 15.09V19.279H514.539C509.465 19.279 505.63 23.999 505.63 27.775V44H500.969V15.267ZM525.44 22.76C525.44 28.542 542.432 26.005 542.432 35.622C542.432 41.109 537.358 44.59 531.222 44.59C524.614 44.59 519.481 40.46 519.481 35.681L524.024 34.855C524.024 38.336 527.328 40.814 531.222 40.814C534.644 40.814 537.712 39.162 537.712 35.799C537.712 30.135 520.956 32.318 520.956 23.055C520.956 18.276 525.558 14.736 531.222 14.736C537.181 14.736 541.252 18.689 541.252 22.819L536.945 23.586C536.945 20.813 534.644 18.512 531.163 18.512C528.39 18.512 525.44 19.987 525.44 22.76ZM547.551 29.604C547.551 21.108 553.923 14.736 562.95 14.736C571.859 14.736 578.349 21.108 578.349 29.604C578.349 38.218 571.977 44.59 562.95 44.59C553.864 44.59 547.551 38.336 547.551 29.604ZM562.95 40.342C569.027 40.342 573.57 35.74 573.57 29.604C573.57 23.468 569.027 18.925 562.95 18.925C556.991 18.925 552.33 23.645 552.33 29.604C552.33 35.622 556.991 40.342 562.95 40.342ZM609.043 44H604.323V27.421C604.323 22.229 602.612 18.925 597.302 18.925C592.759 18.925 589.75 23.704 589.75 27.834V44H585.089V15.267H589.75V20.813C591.225 17.981 594.47 14.736 599.072 14.736C606.152 14.736 609.043 19.574 609.043 26.595V44ZM632.053 26.89H635.475C635.475 21.698 633.764 18.63 628.041 18.63C624.796 18.63 621.02 20.341 620.784 23.586L616.241 22.937C616.359 18.925 621.551 14.736 628.1 14.736C636.006 14.736 640.254 18.925 640.254 26.3V44H635.534V37.451C634.413 41.227 630.106 44.531 625.209 44.531C620.607 44.531 615.828 42.348 615.828 36.566C615.828 29.014 624.737 26.89 632.053 26.89ZM626.212 40.814C632.879 40.814 635.534 35.386 635.534 30.253H631.64C626.743 30.253 620.489 31.138 620.489 36.33C620.489 39.634 623.262 40.814 626.212 40.814ZM648.415 44V0.693998H653.076V44H648.415ZM709.261 44L705.485 35.032H685.366L681.59 44H676.339L693.98 4.411H696.93L714.512 44H709.261ZM695.396 11.314L686.9 30.961H704.01L695.396 11.314ZM720.749 44V4.411H725.469V44H720.749ZM780.245 17.332C780.245 25.592 773.814 31.964 765.613 31.964H758.828V44H754.108V4.411H765.377C773.755 4.411 780.245 8.895 780.245 17.332ZM758.828 27.834H765.2C771.513 27.834 775.407 23.409 775.407 17.509C775.407 11.609 770.805 8.482 765.082 8.482H758.828V27.834ZM787.557 15.267H792.218V22.052C793.044 19.043 796.879 15.031 801.658 15.031C802.189 15.031 802.72 15.031 803.192 15.09V19.279H801.127C796.053 19.279 792.218 23.999 792.218 27.775V44H787.557V15.267ZM806.541 29.604C806.541 21.108 812.913 14.736 821.94 14.736C830.849 14.736 837.339 21.108 837.339 29.604C837.339 38.218 830.967 44.59 821.94 44.59C812.854 44.59 806.541 38.336 806.541 29.604ZM821.94 40.342C828.017 40.342 832.56 35.74 832.56 29.604C832.56 23.468 828.017 18.925 821.94 18.925C815.981 18.925 811.32 23.645 811.32 29.604C811.32 35.622 815.981 40.342 821.94 40.342ZM867.876 15.267L855.427 44.059H852.418L840.087 15.267H845.161L854.011 37.746L862.979 15.267H867.876ZM873.36 44V15.267H878.021V44H873.36ZM872.829 8.423V2.641H878.729V8.423H872.829ZM910.905 44L910.846 38.277C909.135 41.876 904.356 44.59 900.167 44.59C891.612 44.59 885.476 38.277 885.476 29.486C885.476 20.813 891.789 14.736 900.167 14.736C904.71 14.736 909.076 17.509 910.846 21.226V0.693998H915.507V44H910.905ZM890.255 29.545C890.255 35.681 894.739 40.342 900.875 40.342C906.834 40.342 911.082 35.327 911.082 29.545C911.082 23.704 906.775 18.925 900.875 18.925C894.798 18.925 890.255 23.409 890.255 29.545ZM924.006 44V15.267H928.667V44H924.006ZM923.475 8.423V2.641H929.375V8.423H923.475ZM961.315 44H956.595V27.421C956.595 22.229 954.884 18.925 949.574 18.925C945.031 18.925 942.022 23.704 942.022 27.834V44H937.361V15.267H942.022V20.813C943.497 17.981 946.742 14.736 951.344 14.736C958.424 14.736 961.315 19.574 961.315 26.595V44ZM993.469 15.267H998.13V43.469C998.13 52.496 992.407 57.924 983.203 57.924C976.536 57.924 969.279 54.561 969.043 47.54L973.763 46.95C973.94 51.729 979.073 53.794 983.321 53.794C989.929 53.794 993.469 50.254 993.469 44.059V38.336C991.522 41.994 986.979 44.59 982.79 44.59C974.294 44.59 968.099 38.1 968.099 29.486C968.099 20.695 974.471 14.736 982.79 14.736C987.392 14.736 991.758 17.568 993.469 21.285V15.267ZM972.878 29.545C972.878 35.681 977.362 40.342 983.498 40.342C989.457 40.342 993.705 35.327 993.705 29.545C993.705 23.704 989.398 18.925 983.498 18.925C977.421 18.925 972.878 23.409 972.878 29.545ZM1037.76 44.59C1028.55 44.59 1023.07 37.628 1023.07 29.486C1023.07 21.816 1028.73 14.736 1037.76 14.736C1047.2 14.736 1051.33 21.816 1051.33 28.542V30.666H1027.9C1027.9 35.799 1032.09 40.519 1037.76 40.519C1041.83 40.519 1044.9 38.867 1046.49 36.212L1050.85 37.923C1048.26 41.994 1043.77 44.59 1037.76 44.59ZM1037.76 18.63C1031.92 18.63 1028.02 23.055 1028.02 27.244H1046.78C1046.78 22.937 1043.24 18.63 1037.76 18.63ZM1070.12 29.427L1080.15 44H1074.61L1067.17 32.554L1060.09 44H1054.67L1064.11 29.663L1054.61 15.267H1060.04L1067.23 26.89L1074.61 15.267H1079.98L1070.12 29.427ZM1090.21 38.277V57.511H1085.55V15.267H1090.21V21.226C1091.92 17.509 1096.47 14.736 1100.95 14.736C1109.27 14.736 1115.58 20.813 1115.58 29.486C1115.58 38.218 1109.33 44.59 1100.95 44.59C1096.76 44.59 1091.86 41.935 1090.21 38.277ZM1100.24 40.342C1106.32 40.342 1110.8 35.622 1110.8 29.545C1110.8 23.468 1106.26 18.925 1100.24 18.925C1094.34 18.925 1089.98 23.704 1089.98 29.545C1089.98 35.327 1094.28 40.342 1100.24 40.342ZM1135.76 44.59C1126.56 44.59 1121.07 37.628 1121.07 29.486C1121.07 21.816 1126.74 14.736 1135.76 14.736C1145.2 14.736 1149.33 21.816 1149.33 28.542V30.666H1125.91C1125.91 35.799 1130.1 40.519 1135.76 40.519C1139.83 40.519 1142.9 38.867 1144.5 36.212L1148.86 37.923C1146.27 41.994 1141.78 44.59 1135.76 44.59ZM1135.76 18.63C1129.92 18.63 1126.03 23.055 1126.03 27.244H1144.79C1144.79 22.937 1141.25 18.63 1135.76 18.63ZM1156.19 15.267H1160.85V22.052C1161.68 19.043 1165.51 15.031 1170.29 15.031C1170.82 15.031 1171.36 15.031 1171.83 15.09V19.279H1169.76C1164.69 19.279 1160.85 23.999 1160.85 27.775V44H1156.19V15.267ZM1190.4 39.988L1190.52 44.059C1189.16 44.295 1187.45 44.354 1185.8 44.354C1179.84 44.354 1179.13 40.637 1179.13 35.091V19.279H1173.29V15.267H1179.13V8.246H1183.79V15.267H1190.99V19.279H1183.79V34.678C1183.79 38.808 1184.5 40.106 1187.8 40.106C1188.51 40.106 1189.39 40.047 1190.4 39.988ZM69.1904 100.89H72.6124C72.6124 95.698 70.9014 92.63 65.1784 92.63C61.9334 92.63 58.1574 94.341 57.9214 97.586L53.3784 96.937C53.4964 92.925 58.6884 88.736 65.2374 88.736C73.1434 88.736 77.3914 92.925 77.3914 100.3V118H72.6714V111.451C71.5504 115.227 67.2434 118.531 62.3464 118.531C57.7444 118.531 52.9654 116.348 52.9654 110.566C52.9654 103.014 61.8744 100.89 69.1904 100.89ZM63.3494 114.814C70.0164 114.814 72.6714 109.386 72.6714 104.253H68.7774C63.8804 104.253 57.6264 105.138 57.6264 110.33C57.6264 113.634 60.3994 114.814 63.3494 114.814ZM89.6233 96.76C89.6233 102.542 106.615 100.005 106.615 109.622C106.615 115.109 101.541 118.59 95.4053 118.59C88.7973 118.59 83.6643 114.46 83.6643 109.681L88.2073 108.855C88.2073 112.336 91.5113 114.814 95.4053 114.814C98.8273 114.814 101.895 113.162 101.895 109.799C101.895 104.135 85.1393 106.318 85.1393 97.055C85.1393 92.276 89.7413 88.736 95.4053 88.736C101.364 88.736 105.435 92.689 105.435 96.819L101.128 97.586C101.128 94.813 98.8273 92.512 95.3463 92.512C92.5733 92.512 89.6233 93.987 89.6233 96.76ZM116.646 96.76C116.646 102.542 133.638 100.005 133.638 109.622C133.638 115.109 128.564 118.59 122.428 118.59C115.82 118.59 110.687 114.46 110.687 109.681L115.23 108.855C115.23 112.336 118.534 114.814 122.428 114.814C125.85 114.814 128.918 113.162 128.918 109.799C128.918 104.135 112.162 106.318 112.162 97.055C112.162 92.276 116.764 88.736 122.428 88.736C128.387 88.736 132.458 92.689 132.458 96.819L128.151 97.586C128.151 94.813 125.85 92.512 122.369 92.512C119.596 92.512 116.646 93.987 116.646 96.76ZM140.527 118V89.267H145.188V118H140.527ZM139.996 82.423V76.641H145.896V82.423H139.996ZM158.13 96.76C158.13 102.542 175.122 100.005 175.122 109.622C175.122 115.109 170.048 118.59 163.912 118.59C157.304 118.59 152.171 114.46 152.171 109.681L156.714 108.855C156.714 112.336 160.018 114.814 163.912 114.814C167.334 114.814 170.402 113.162 170.402 109.799C170.402 104.135 153.646 106.318 153.646 97.055C153.646 92.276 158.248 88.736 163.912 88.736C169.871 88.736 173.942 92.689 173.942 96.819L169.635 97.586C169.635 94.813 167.334 92.512 163.853 92.512C161.08 92.512 158.13 93.987 158.13 96.76ZM195.464 113.988L195.582 118.059C194.225 118.295 192.514 118.354 190.862 118.354C184.903 118.354 184.195 114.637 184.195 109.091V93.279H178.354V89.267H184.195V82.246H188.856V89.267H196.054V93.279H188.856V108.678C188.856 112.808 189.564 114.106 192.868 114.106C193.576 114.106 194.461 114.047 195.464 113.988ZM216.748 100.89H220.17C220.17 95.698 218.459 92.63 212.736 92.63C209.491 92.63 205.715 94.341 205.479 97.586L200.936 96.937C201.054 92.925 206.246 88.736 212.795 88.736C220.701 88.736 224.949 92.925 224.949 100.3V118H220.229V111.451C219.108 115.227 214.801 118.531 209.904 118.531C205.302 118.531 200.523 116.348 200.523 110.566C200.523 103.014 209.432 100.89 216.748 100.89ZM210.907 114.814C217.574 114.814 220.229 109.386 220.229 104.253H216.335C211.438 104.253 205.184 105.138 205.184 110.33C205.184 113.634 207.957 114.814 210.907 114.814ZM256.887 118H252.167V101.421C252.167 96.229 250.456 92.925 245.146 92.925C240.603 92.925 237.594 97.704 237.594 101.834V118H232.933V89.267H237.594V94.813C239.069 91.981 242.314 88.736 246.916 88.736C253.996 88.736 256.887 93.574 256.887 100.595V118ZM279.07 118.59C269.866 118.59 263.671 112.159 263.671 103.486C263.671 94.931 270.161 88.736 279.07 88.736C285.442 88.736 290.162 91.863 292.758 96.583L288.215 97.999C286.386 94.931 283.259 92.925 279.07 92.925C273.17 92.925 268.45 97.409 268.45 103.486C268.45 109.563 273.229 114.342 279.07 114.342C283.2 114.342 286.268 112.395 288.097 109.327L292.699 110.861C289.926 115.64 285.56 118.59 279.07 118.59ZM312.472 118.59C303.268 118.59 297.781 111.628 297.781 103.486C297.781 95.816 303.445 88.736 312.472 88.736C321.912 88.736 326.042 95.816 326.042 102.542V104.666H302.619C302.619 109.799 306.808 114.519 312.472 114.519C316.543 114.519 319.611 112.867 321.204 110.212L325.57 111.923C322.974 115.994 318.49 118.59 312.472 118.59ZM312.472 92.63C306.631 92.63 302.737 97.055 302.737 101.244H321.499C321.499 96.937 317.959 92.63 312.472 92.63ZM366.034 100.89H369.456C369.456 95.698 367.745 92.63 362.022 92.63C358.777 92.63 355.001 94.341 354.765 97.586L350.222 96.937C350.34 92.925 355.532 88.736 362.081 88.736C369.987 88.736 374.235 92.925 374.235 100.3V118H369.515V111.451C368.394 115.227 364.087 118.531 359.19 118.531C354.588 118.531 349.809 116.348 349.809 110.566C349.809 103.014 358.718 100.89 366.034 100.89ZM360.193 114.814C366.86 114.814 369.515 109.386 369.515 104.253H365.621C360.724 104.253 354.47 105.138 354.47 110.33C354.47 113.634 357.243 114.814 360.193 114.814ZM406.173 118H401.453V101.421C401.453 96.229 399.742 92.925 394.432 92.925C389.889 92.925 386.88 97.704 386.88 101.834V118H382.219V89.267H386.88V94.813C388.355 91.981 391.6 88.736 396.202 88.736C403.282 88.736 406.173 93.574 406.173 100.595V118ZM438.387 118L438.328 112.277C436.617 115.876 431.838 118.59 427.649 118.59C419.094 118.59 412.958 112.277 412.958 103.486C412.958 94.813 419.271 88.736 427.649 88.736C432.192 88.736 436.558 91.509 438.328 95.226V74.694H442.989V118H438.387ZM417.737 103.545C417.737 109.681 422.221 114.342 428.357 114.342C434.316 114.342 438.564 109.327 438.564 103.545C438.564 97.704 434.257 92.925 428.357 92.925C422.28 92.925 417.737 97.409 417.737 103.545ZM483.146 113.988L483.264 118.059C481.907 118.295 480.196 118.354 478.544 118.354C472.585 118.354 471.877 114.637 471.877 109.091V93.279H466.036V89.267H471.877V82.246H476.538V89.267H483.736V93.279H476.538V108.678C476.538 112.808 477.246 114.106 480.55 114.106C481.258 114.106 482.143 114.047 483.146 113.988ZM489.504 89.267H494.165V96.052C494.991 93.043 498.826 89.031 503.605 89.031C504.136 89.031 504.667 89.031 505.139 89.09V93.279H503.074C498 93.279 494.165 97.999 494.165 101.775V118H489.504V89.267ZM524.424 100.89H527.846C527.846 95.698 526.135 92.63 520.412 92.63C517.167 92.63 513.391 94.341 513.155 97.586L508.612 96.937C508.73 92.925 513.922 88.736 520.471 88.736C528.377 88.736 532.625 92.925 532.625 100.3V118H527.905V111.451C526.784 115.227 522.477 118.531 517.58 118.531C512.978 118.531 508.199 116.348 508.199 110.566C508.199 103.014 517.108 100.89 524.424 100.89ZM518.583 114.814C525.25 114.814 527.905 109.386 527.905 104.253H524.011C519.114 104.253 512.86 105.138 512.86 110.33C512.86 113.634 515.633 114.814 518.583 114.814ZM564.799 118L564.74 112.277C563.029 115.876 558.25 118.59 554.061 118.59C545.506 118.59 539.37 112.277 539.37 103.486C539.37 94.813 545.683 88.736 554.061 88.736C558.604 88.736 562.97 91.509 564.74 95.226V74.694H569.401V118H564.799ZM544.149 103.545C544.149 109.681 548.633 114.342 554.769 114.342C560.728 114.342 564.976 109.327 564.976 103.545C564.976 97.704 560.669 92.925 554.769 92.925C548.692 92.925 544.149 97.409 544.149 103.545ZM577.899 118V89.267H582.56V118H577.899ZM577.368 82.423V76.641H583.268V82.423H577.368ZM615.208 118H610.488V101.421C610.488 96.229 608.777 92.925 603.467 92.925C598.924 92.925 595.915 97.704 595.915 101.834V118H591.254V89.267H595.915V94.813C597.39 91.981 600.635 88.736 605.237 88.736C612.317 88.736 615.208 93.574 615.208 100.595V118ZM647.363 89.267H652.024V117.469C652.024 126.496 646.301 131.924 637.097 131.924C630.43 131.924 623.173 128.561 622.937 121.54L627.657 120.95C627.834 125.729 632.967 127.794 637.215 127.794C643.823 127.794 647.363 124.254 647.363 118.059V112.336C645.416 115.994 640.873 118.59 636.684 118.59C628.188 118.59 621.993 112.1 621.993 103.486C621.993 94.695 628.365 88.736 636.684 88.736C641.286 88.736 645.652 91.568 647.363 95.285V89.267ZM626.772 103.545C626.772 109.681 631.256 114.342 637.392 114.342C643.351 114.342 647.599 109.327 647.599 103.545C647.599 97.704 643.292 92.925 637.392 92.925C631.315 92.925 626.772 97.409 626.772 103.545ZM682.801 112.277C682.801 114.165 682.86 116.112 682.86 118H678.199V74.694H682.86V95.226C684.512 91.509 688.996 88.736 693.539 88.736C701.858 88.736 708.171 94.813 708.171 103.486C708.171 112.218 701.976 118.59 693.539 118.59C689.35 118.59 684.453 115.876 682.801 112.277ZM692.831 114.342C698.908 114.342 703.392 109.622 703.392 103.545C703.392 97.468 698.849 92.925 692.831 92.925C686.931 92.925 682.565 97.704 682.565 103.545C682.565 109.327 686.872 114.342 692.831 114.342ZM713.662 103.604C713.662 95.108 720.034 88.736 729.061 88.736C737.97 88.736 744.46 95.108 744.46 103.604C744.46 112.218 738.088 118.59 729.061 118.59C719.975 118.59 713.662 112.336 713.662 103.604ZM729.061 114.342C735.138 114.342 739.681 109.74 739.681 103.604C739.681 97.468 735.138 92.925 729.061 92.925C723.102 92.925 718.441 97.645 718.441 103.604C718.441 109.622 723.102 114.342 729.061 114.342ZM765.183 113.988L765.301 118.059C763.944 118.295 762.233 118.354 760.581 118.354C754.622 118.354 753.914 114.637 753.914 109.091V93.279H748.073V89.267H753.914V82.246H758.575V89.267H765.773V93.279H758.575V108.678C758.575 112.808 759.283 114.106 762.587 114.106C763.295 114.106 764.18 114.047 765.183 113.988ZM813.878 118L813.819 112.277C812.108 115.876 807.329 118.59 803.14 118.59C794.585 118.59 788.449 112.277 788.449 103.486C788.449 94.813 794.762 88.736 803.14 88.736C807.683 88.736 812.049 91.509 813.819 95.226V74.694H818.48V118H813.878ZM793.228 103.545C793.228 109.681 797.712 114.342 803.848 114.342C809.807 114.342 814.055 109.327 814.055 103.545C814.055 97.704 809.748 92.925 803.848 92.925C797.771 92.925 793.228 97.409 793.228 103.545ZM839.9 118.59C830.696 118.59 825.209 111.628 825.209 103.486C825.209 95.816 830.873 88.736 839.9 88.736C849.34 88.736 853.47 95.816 853.47 102.542V104.666H830.047C830.047 109.799 834.236 114.519 839.9 114.519C843.971 114.519 847.039 112.867 848.632 110.212L852.998 111.923C850.402 115.994 845.918 118.59 839.9 118.59ZM839.9 92.63C834.059 92.63 830.165 97.055 830.165 101.244H848.927C848.927 96.937 845.387 92.63 839.9 92.63ZM884.355 89.267L871.906 118.059H868.897L856.566 89.267H861.64L870.49 111.746L879.458 89.267H884.355ZM902.184 118.59C892.98 118.59 887.493 111.628 887.493 103.486C887.493 95.816 893.157 88.736 902.184 88.736C911.624 88.736 915.754 95.816 915.754 102.542V104.666H892.331C892.331 109.799 896.52 114.519 902.184 114.519C906.255 114.519 909.323 112.867 910.916 110.212L915.282 111.923C912.686 115.994 908.202 118.59 902.184 118.59ZM902.184 92.63C896.343 92.63 892.449 97.055 892.449 101.244H911.211C911.211 96.937 907.671 92.63 902.184 92.63ZM922.73 118V74.694H927.391V118H922.73ZM934.336 103.604C934.336 95.108 940.708 88.736 949.735 88.736C958.644 88.736 965.134 95.108 965.134 103.604C965.134 112.218 958.762 118.59 949.735 118.59C940.649 118.59 934.336 112.336 934.336 103.604ZM949.735 114.342C955.812 114.342 960.355 109.74 960.355 103.604C960.355 97.468 955.812 92.925 949.735 92.925C943.776 92.925 939.115 97.645 939.115 103.604C939.115 109.622 943.776 114.342 949.735 114.342ZM976.475 112.277V131.511H971.814V89.267H976.475V95.226C978.186 91.509 982.729 88.736 987.213 88.736C995.532 88.736 1001.85 94.813 1001.85 103.486C1001.85 112.218 995.591 118.59 987.213 118.59C983.024 118.59 978.127 115.935 976.475 112.277ZM986.505 114.342C992.582 114.342 997.066 109.622 997.066 103.545C997.066 97.468 992.523 92.925 986.505 92.925C980.605 92.925 976.239 97.704 976.239 103.545C976.239 109.327 980.546 114.342 986.505 114.342ZM1041.67 88.736C1049.11 88.736 1051.7 93.574 1051.7 99.946V118H1047.04V101.362C1047.04 96.406 1045.45 92.925 1040.14 92.925C1035.72 92.925 1032.47 97.232 1032.47 101.48V118H1027.81V101.598C1027.81 96.524 1026.22 92.925 1020.79 92.925C1015.83 92.925 1013.24 97.94 1013.24 102.955V118H1008.58V89.267H1013.24V94.813C1015.24 91.273 1018.55 88.736 1023.15 88.736C1027.1 88.736 1030.23 91.096 1031.76 94.99C1033.47 91.45 1037.07 88.736 1041.67 88.736ZM1073.19 118.59C1063.99 118.59 1058.5 111.628 1058.5 103.486C1058.5 95.816 1064.16 88.736 1073.19 88.736C1082.63 88.736 1086.76 95.816 1086.76 102.542V104.666H1063.34C1063.34 109.799 1067.53 114.519 1073.19 114.519C1077.26 114.519 1080.33 112.867 1081.92 110.212L1086.29 111.923C1083.69 115.994 1079.21 118.59 1073.19 118.59ZM1073.19 92.63C1067.35 92.63 1063.46 97.055 1063.46 101.244H1082.22C1082.22 96.937 1078.68 92.63 1073.19 92.63ZM1117.51 118H1112.79V101.421C1112.79 96.229 1111.08 92.925 1105.77 92.925C1101.23 92.925 1098.22 97.704 1098.22 101.834V118H1093.56V89.267H1098.22V94.813C1099.7 91.981 1102.94 88.736 1107.54 88.736C1114.62 88.736 1117.51 93.574 1117.51 100.595V118ZM1139.52 113.988L1139.64 118.059C1138.28 118.295 1136.57 118.354 1134.92 118.354C1128.96 118.354 1128.25 114.637 1128.25 109.091V93.279H1122.41V89.267H1128.25V82.246H1132.91V89.267H1140.11V93.279H1132.91V108.678C1132.91 112.808 1133.62 114.106 1136.93 114.106C1137.63 114.106 1138.52 114.047 1139.52 113.988Z" fill="white"/>
<defs>
<linearGradient id="paint0_linear_416_293" x1="109" y1="-25.2435" x2="109" y2="43.6523" gradientUnits="userSpaceOnUse">
<stop stop-color="#613EC8"/>
<stop offset="1" stop-color="#BF9FFF"/>
</linearGradient>
</defs>
</svg>
