<svg width="165" height="160" viewBox="0 0 165 160" fill="none" xmlns="http://www.w3.org/2000/svg">
<circle cx="80.25" cy="80" r="80" fill="url(#paint0_linear_416_514)"/>
<g clip-path="url(#clip0_416_514)">
<path fill-rule="evenodd" clip-rule="evenodd" d="M30.7374 93.234L30.7373 91.0448C22.2927 87.1577 15.6485 91.3443 15.2679 101.028L17.1547 102.117C17.5306 93.6336 23.3351 89.9353 30.7374 93.234ZM34.343 95.3272C41.3812 100.363 46.9575 110.05 47.7625 118.655L49.6581 119.749C48.837 109.932 42.4231 98.7942 34.343 93.1367L34.343 95.3272ZM47.7718 122.634C47.0012 130.374 41.4094 133.659 34.344 130.555L34.3441 132.745C42.4513 136.431 48.8807 132.662 49.6663 123.728L47.7718 122.634ZM30.7383 128.485C23.964 123.68 18.5275 114.561 17.3654 106.213L15.4551 105.11C16.6475 114.68 22.9218 125.245 30.7384 130.673L30.7383 128.485ZM15.2506 101.917C15.2506 101.873 15.2508 101.829 15.251 101.785L15.251 102.049C15.2508 102.005 15.2506 101.961 15.2506 101.917ZM32.5523 131.823L32.4995 131.793L32.4466 131.762L32.5523 131.823Z" fill="white"/>
<path d="M30.6191 115.286L28.4735 106.006L28.2096 104.873L29.3339 105.522L31.5255 115.147L31.0207 114.723L32.9248 107.596L34.0836 108.265L31.9614 116.061L30.6191 115.286ZM25.5827 112.378L23.46 102.131L24.6187 102.8L26.5234 112.126L26.0186 111.967L28.2096 104.873L29.3339 105.522L29.0701 106.35L26.925 113.153L25.5827 112.378Z" fill="white"/>
<path d="M34.3798 108.373L36.5254 117.653L36.7893 118.786L35.665 118.136L33.4734 108.512L33.9782 108.936L32.0741 116.063L30.9153 115.394L33.0375 107.598L34.3798 108.373ZM39.4162 111.281L41.5389 121.528L40.3802 120.859L38.4755 111.533L38.9803 111.692L36.7893 118.786L35.665 118.136L35.9288 117.308L38.0739 110.506L39.4162 111.281Z" fill="white"/>
</g>
<ellipse cx="76.5218" cy="63.9054" rx="8.5" ry="18" transform="rotate(-14.8392 76.5218 63.9054)" fill="black"/>
<ellipse cx="119.522" cy="61.9053" rx="8.5" ry="18" transform="rotate(0.680275 119.522 61.9053)" fill="black"/>
<ellipse cx="71.4944" cy="55.8663" rx="2.5" ry="4.5" transform="rotate(-10.0141 71.4944 55.8663)" fill="#D9D9D9"/>
<ellipse cx="116.257" cy="54.7605" rx="2.5" ry="4.5" transform="rotate(6.6876 116.257 54.7605)" fill="#D9D9D9"/>
<path d="M116.25 90.5908C116.25 94.7328 109.258 102.204 101.25 102.204C93.2419 102.204 86.25 94.7328 86.25 90.5908C88.25 87.5908 93.2419 91.7041 101.25 91.7041C109.258 91.7041 116.25 86.4488 116.25 90.5908Z" fill="#F48585"/>
<path fill-rule="evenodd" clip-rule="evenodd" d="M104.288 101.854C110.947 100.33 116.25 94.1981 116.25 90.5908C116.25 88.24 113.998 88.9162 110.586 89.9407C107.986 90.7213 104.713 91.7041 101.25 91.7041C97.7373 91.7041 94.8049 90.9127 92.4508 90.2773C89.4382 89.4642 87.3727 88.9068 86.25 90.5908C86.25 93.4104 89.4899 97.7726 94.0848 100.271C95.2974 99.5698 97.8453 99.1487 99.2502 99.5C101.068 99.9546 103.699 101.035 104.288 101.854Z" fill="black"/>
<path d="M160.25 77.1062C160.65 76.7062 161.583 77.5176 162.25 78.1842L161.25 82.1843C160.583 81.0176 159.85 77.5062 160.25 77.1062Z" fill="url(#paint1_linear_416_514)"/>
<path d="M139.75 99.1843C149.645 96.2981 160.583 85.1843 162.25 78.1843L163.198 80.1843L164.198 82.1843C165.198 89.6843 151.532 99.351 141.698 104.184C139.198 101.684 138.25 99.6218 139.75 99.1843Z" fill="url(#paint2_linear_416_514)"/>
<ellipse cx="6.8298" cy="4.51002" rx="6.8298" ry="4.51002" transform="matrix(-0.93201 0.362433 0.362433 0.93201 140.98 96.1843)" fill="url(#paint3_linear_416_514)"/>
<defs>
<linearGradient id="paint0_linear_416_514" x1="80.25" y1="0" x2="80.25" y2="160" gradientUnits="userSpaceOnUse">
<stop stop-color="#613EC8"/>
<stop offset="0.420513" stop-color="#B096FF"/>
<stop offset="1" stop-color="#F1CAF9"/>
</linearGradient>
<linearGradient id="paint1_linear_416_514" x1="160.961" y1="76.6062" x2="160.961" y2="82.1843" gradientUnits="userSpaceOnUse">
<stop stop-color="#C1C1C1"/>
<stop offset="1" stop-color="#C8C8C8"/>
</linearGradient>
<linearGradient id="paint2_linear_416_514" x1="151.641" y1="78.1843" x2="151.641" y2="104.184" gradientUnits="userSpaceOnUse">
<stop stop-color="#DCD9D6"/>
<stop offset="1" stop-color="#C2C2C2"/>
</linearGradient>
<linearGradient id="paint3_linear_416_514" x1="6.8298" y1="0" x2="6.8298" y2="9.02005" gradientUnits="userSpaceOnUse">
<stop stop-color="#DCD9D6"/>
<stop offset="1" stop-color="#C2C2C2"/>
</linearGradient>
<clipPath id="clip0_416_514">
<rect width="39.8337" height="39.8337" fill="white" transform="matrix(0.86601 0.500028 3.18351e-05 1 15.25 82)"/>
</clipPath>
</defs>
</svg>
