<svg width="168" height="168" viewBox="0 0 168 168" fill="none" xmlns="http://www.w3.org/2000/svg">
<g clip-path="url(#clip0_238_566)">
<path d="M84 168C130.392 168 168 130.392 168 84C168 37.6081 130.392 0 84 0C37.6081 0 0 37.6081 0 84C0 130.392 37.6081 168 84 168Z" fill="white"/>
<path d="M84 158.822C125.323 158.822 158.822 125.323 158.822 84C158.822 42.677 125.323 9.17816 84 9.17816C42.677 9.17816 9.17816 42.677 9.17816 84C9.17816 125.323 42.677 158.822 84 158.822Z" fill="black"/>
<path d="M17.5582 80.209H0V96.9691H17.5582V80.209Z" fill="black"/>
<path d="M168 75.4204H150.442V92.1805H168V75.4204Z" fill="black"/>
<path d="M92.9786 0H75.4204V16.7601H92.9786V0Z" fill="black"/>
<path d="M92.9786 151.24H75.4204V168H92.9786V151.24Z" fill="black"/>
<path d="M74.843 102.955L64.3959 69.0436L63.1109 64.9095H68.5859L79.2565 100.162L76.7983 99.6029L86.0723 64.9095H91.7148L81.3794 102.955H74.843ZM50.3174 102.955L39.982 64.9095H45.6246L54.8985 99.6029L52.4403 100.162L63.1109 64.9095H68.5859L67.3009 69.0436L56.8538 102.955H50.3174Z" fill="white"/>
<path d="M93.157 64.6461L103.604 98.5573L104.889 102.692H99.4141L88.7435 67.4394L91.2016 67.9981L81.9277 102.692H76.2852L86.6205 64.6461H93.157ZM117.683 64.6461L128.018 102.692H122.375L113.101 67.9981L115.56 67.4394L104.889 102.692H99.4141L100.699 98.5573L111.146 64.6461H117.683Z" fill="white"/>
</g>
<defs>
<clipPath id="clip0_238_566">
<rect width="168" height="168" fill="white"/>
</clipPath>
</defs>
</svg>
